<svg width="77" height="77" viewBox="0 0 77 77" fill="none" xmlns="http://www.w3.org/2000/svg">
<rect x="0.5" y="0.5" width="76" height="76" fill="#141C24" stroke="white"/>
<path d="M35.2266 44.4766H37.125C36.8906 46.8672 36.25 48.8828 35.2031 50.5234C34.1562 52.1484 32.75 53.3828 30.9844 54.2266C29.2344 55.0547 27.1719 55.4688 24.7969 55.4688C22.9062 55.4688 21.1875 55.1094 19.6406 54.3906C18.1094 53.6562 16.7891 52.625 15.6797 51.2969C14.5859 49.9531 13.7422 48.3516 13.1484 46.4922C12.5547 44.6328 12.2578 42.5781 12.2578 40.3281V35.5469C12.2578 33.2812 12.5547 31.2266 13.1484 29.3828C13.7422 27.5234 14.5859 25.9297 15.6797 24.6016C16.7891 23.2578 18.1172 22.2266 19.6641 21.5078C21.2266 20.7734 22.9688 20.4062 24.8906 20.4062C27.2188 20.4062 29.2578 20.8203 31.0078 21.6484C32.7578 22.4766 34.1562 23.7109 35.2031 25.3516C36.25 26.9766 36.8906 28.9844 37.125 31.375H35.2266C34.9922 29.3906 34.4531 27.7188 33.6094 26.3594C32.7812 24.9844 31.6406 23.9375 30.1875 23.2188C28.7344 22.5 26.9688 22.1406 24.8906 22.1406C23.25 22.1406 21.7734 22.4609 20.4609 23.1016C19.1484 23.7266 18.0234 24.6328 17.0859 25.8203C16.1484 26.9922 15.4219 28.3984 14.9062 30.0391C14.4062 31.6641 14.1562 33.4844 14.1562 35.5V40.3281C14.1562 42.3125 14.4062 44.1328 14.9062 45.7891C15.4062 47.4297 16.1172 48.8438 17.0391 50.0312C17.9609 51.2031 19.0781 52.1172 20.3906 52.7734C21.7031 53.4141 23.1719 53.7344 24.7969 53.7344C26.875 53.7344 28.6484 53.4062 30.1172 52.75C31.5859 52.0781 32.7422 51.0547 33.5859 49.6797C34.4453 48.3047 34.9922 46.5703 35.2266 44.4766ZM46.5703 20.875V55H44.6719V20.875H46.5703ZM63.4453 36.7656V38.5469H45.6328V36.7656H63.4453ZM65.8125 20.875V22.6094H45.6328V20.875H65.8125Z" fill="white"/>
</svg>
